<?xml version="1.0" encoding="utf-8"?>
<!-- Generator: Adobe Illustrator 19.2.1, SVG Export Plug-In . SVG Version: 6.00 Build 0)  -->
<svg version="1.1" id="Layer_1" xmlns="http://www.w3.org/2000/svg" xmlns:xlink="http://www.w3.org/1999/xlink" x="0px" y="0px"
	 viewBox="0 0 229.1 22.1" style="enable-background:new 0 0 229.1 22.1;" xml:space="preserve">
<style type="text/css">
	.st0{fill-rule:evenodd;clip-rule:evenodd;fill:#64674E;}
	.st1{fill:#64674E;}
	.st2{fill:#B9926A;}
</style>
<g>
	<path class="st0" d="M228.9,3.1c0-0.4-0.1-0.7-0.2-1.1c-0.1-0.3-0.3-0.6-0.6-0.9s-0.5-0.4-0.9-0.6c-0.3-0.1-0.7-0.2-1.1-0.2
		c-0.4,0-0.7,0.1-1.1,0.2c-0.3,0.2-0.6,0.4-0.9,0.6s-0.4,0.5-0.6,0.9c-0.1,0.3-0.2,0.7-0.2,1.1c0,0.4,0.1,0.7,0.2,1.1
		c0.1,0.3,0.3,0.6,0.6,0.9c0.3,0.3,0.6,0.5,0.9,0.6c0.3,0.1,0.7,0.2,1.1,0.2c0.4,0,0.7-0.1,1.1-0.2c0.3-0.1,0.6-0.4,0.9-0.6
		s0.4-0.5,0.6-0.9C228.8,3.8,228.9,3.4,228.9,3.1z M229.1,3.1c0,0.4-0.1,0.8-0.2,1.2s-0.4,0.7-0.7,1c-0.3,0.3-0.6,0.5-1,0.6
		c-0.4,0.2-0.8,0.2-1.2,0.2s-0.8-0.1-1.2-0.2c-0.4-0.1-0.7-0.4-1-0.6c-0.3-0.3-0.5-0.6-0.6-1c-0.2-0.4-0.2-0.8-0.2-1.2
		c0-0.4,0.1-0.8,0.2-1.2c0.2-0.4,0.4-0.7,0.6-1c0.3-0.3,0.6-0.5,1-0.6c0.4-0.2,0.8-0.2,1.2-0.2c0.4,0,0.8,0.1,1.2,0.2
		c0.4,0.2,0.7,0.4,1,0.6c0.3,0.3,0.5,0.6,0.7,1C229.1,2.2,229.1,2.6,229.1,3.1z"/>
	<path class="st0" d="M226.8,2.8c0.2-0.1,0.3-0.3,0.3-0.6c0-0.3-0.1-0.4-0.3-0.5c-0.2-0.1-0.4-0.1-0.6-0.1h-0.8V3h0.6
		C226.3,3,226.6,2.9,226.8,2.8z M227.3,4.5C227.3,4.5,227.3,4.5,227.3,4.5c0,0.1,0,0.2-0.1,0.2c-0.1,0-0.1,0-0.1-0.1h0l-0.9-1.4
		h-0.7v1.3c0,0.1-0.1,0.2-0.1,0.2s-0.1-0.1-0.1-0.2v-3c0-0.1,0.1-0.2,0.2-0.2h1c0.3,0,0.6,0.1,0.8,0.2c0.2,0.2,0.3,0.4,0.3,0.7
		c0,0.3-0.1,0.5-0.3,0.7c-0.2,0.1-0.4,0.2-0.6,0.2L227.3,4.5L227.3,4.5z"/>
	<path class="st1" d="M115,14c0,5.3-3.4,8.1-7.9,8.1c-0.7,0-1.4-0.2-1.9-0.4v-0.4c0.6,0.3,1.1,0.4,1.8,0.4c2.3,0,4.5-1.7,4.5-7.2
		c0-5.4-1.8-7.8-4.7-7.8c-2.5,0-3.9,1.8-3.9,4.5v7.2c0,1.7-1.2,3.1-2.8,3.4c-0.1,0-0.2-0.1-0.2-0.1V3.3c0-1.2-0.3-1.6-1.7-1.9V0.9
		l4.7-0.9v8.3c1-1.8,3.3-2.8,5.1-2.8C112.4,5.6,115,9.3,115,14z"/>
	<path class="st1" d="M54,21.3v0.5h-5.7v-0.5c1.3-0.4,1.4-1,1.4-2.8V9c0-1.2-0.3-1.7-1.7-2.1V6.6l4.7-1v13
		C52.6,20.5,52.8,21,54,21.3z"/>
	<path class="st2" d="M49.1,1.7c0-1,0.8-1.7,1.7-1.7c0.9,0,1.7,0.8,1.7,1.7c0,0.9-0.8,1.7-1.7,1.7C49.8,3.5,49.1,2.7,49.1,1.7z"/>
	<path class="st0" d="M85.7,11c0-3.3-2-5-4.1-5c-2.3,0-4.5,1.6-4.5,7.1c0,5.5,1.7,7.9,4.7,7.9c2.2,0,3.9-1.6,3.9-4.1V11z M90.3,21.3
		v0.5h-4c-0.4,0-0.6-0.3-0.6-0.6v-1.6c-1.1,1.8-3.3,2.5-5,2.5c-4.6,0-7.2-3.6-7.2-8.5c0-5.3,3.4-8.1,8-8.1c1.3,0,2.4,0.3,3.3,0.8
		l3.8-0.8v13.5C88.6,20.8,89,21.3,90.3,21.3z"/>
	<path class="st0" d="M157.4,11c0-3.3-2-5-4.1-5c-2.2,0-4.5,1.6-4.5,7.1c0,5.5,1.7,7.9,4.7,7.9c2.2,0,3.9-1.6,3.9-4.1V11z M162,21.3
		v0.5h-4c-0.4,0-0.6-0.3-0.6-0.6v-1.6c-1.1,1.8-3.3,2.5-5,2.5c-4.5,0-7.2-3.6-7.2-8.5c0-5.3,3.4-8.1,8-8.1c1.3,0,2.4,0.3,3.3,0.8
		l3.8-0.8v13.5C160.3,20.8,160.7,21.3,162,21.3z"/>
	<path class="st0" d="M217.3,11c0-3.3-2-5-4.1-5c-2.2,0-4.5,1.6-4.5,7.1c0,5.5,1.7,7.9,4.7,7.9c2.2,0,3.9-1.6,3.9-4.1V11z M222,21.4
		v0.5h-4c-0.3,0-0.6-0.3-0.6-0.6v-1.6c-1.1,1.8-3.3,2.6-5,2.6c-4.6,0-7.2-3.6-7.2-8.5c0-5.3,3.4-8.1,8-8.1c1.3,0,2.4,0.3,3.3,0.8
		l3.8-0.8v13.5C220.2,20.8,220.6,21.4,222,21.4z"/>
	<path class="st1" d="M143.7,19l0.3,0.2c-0.5,1.5-2,3-4,3c-2.5,0-4-1.1-4-5.3V6.1h-1.7l-0.1-0.5h0.3c0.8,0,1.5-0.6,1.5-1.5V0.5
		l2.9-0.5v5.5h4.1L143,6.1h-3.9v10.6c0,2.8,1,3.7,2.6,3.7C142.6,20.4,143.4,19.7,143.7,19z"/>
	<path class="st2" d="M182.8,1.8c0-1,0.8-1.7,1.7-1.7c1,0,1.7,0.8,1.7,1.7c0,1-0.8,1.7-1.7,1.7C183.6,3.5,182.8,2.7,182.8,1.8z"/>
	<path class="st1" d="M187.7,21.3v0.5H182v-0.5c1.3-0.4,1.4-1,1.4-2.8V9c0-1.2-0.3-1.7-1.7-2.1V6.6l4.7-1v13
		C186.3,20.5,186.5,21,187.7,21.3z"/>
	<path class="st1" d="M31.3,21.3v0.5h-4.1c-0.3,0-0.6-0.3-0.6-0.6v-2.5c-0.6,1.8-2.8,3.5-5.1,3.5c-2.4,0-4.9-0.9-4.9-5.2V9.1
		c0-2.2,0-2.4-1.9-2.5V6.2l4.8-0.7v11.2c0,2.6,1.5,3.6,3.5,3.6c1.7,0,2.9-1.2,3.5-2.6V9.1c0-2.1,0.1-2.3-1.6-2.5V6.2l4.6-0.7v13.4
		C29.6,20.6,29.9,21.2,31.3,21.3z"/>
	<path class="st2" d="M9.7,8.9c0-1,0.8-1.7,1.7-1.7c1,0,1.7,0.7,1.7,1.7c0,1-0.8,1.7-1.7,1.7C10.4,10.7,9.7,9.9,9.7,8.9z"/>
	<path class="st1" d="M13.3,17.4l0.4,0.2c-0.4,1.7-2.1,4.5-6.3,4.5c-3.8,0-7.4-3.2-7.4-8.2c0-4.2,3.1-8.3,8.3-8.3c0.2,0,0.3,0,0.4,0
		V6C8.5,6,8.4,6,8.3,6c-1.4,0-5.1,1-5.1,7.5c0,4.6,2.5,6.5,5,6.7C10.6,20.4,12.7,18.8,13.3,17.4z"/>
	<path class="st2" d="M42.3,8.9c0-1,0.7-1.7,1.7-1.7c1,0,1.7,0.7,1.7,1.7c0,1-0.8,1.7-1.7,1.7C43.1,10.7,42.3,9.9,42.3,8.9z"/>
	<path class="st1" d="M46,17.4l0.4,0.2c-0.4,1.7-2.1,4.5-6.3,4.5c-3.8,0-7.4-3.2-7.4-8.2c0-4.2,3.1-8.3,8.3-8.3c0.1,0,0.3,0,0.4,0V6
		c-0.1,0-0.3,0-0.4,0c-1.4,0-5.1,1-5.1,7.5c0,4.6,2.5,6.5,5,6.7C43.3,20.4,45.4,18.8,46,17.4z"/>
	<path class="st2" d="M199.2,8.9c0-1,0.8-1.7,1.7-1.7c1,0,1.7,0.7,1.7,1.7c0,1-0.8,1.7-1.7,1.7C200,10.7,199.2,9.9,199.2,8.9z"/>
	<path class="st1" d="M202.9,17.4l0.4,0.2c-0.4,1.7-2.1,4.5-6.3,4.5c-3.8,0-7.4-3.2-7.4-8.2c0-4.2,3.1-8.3,8.3-8.3
		c0.1,0,0.3,0,0.4,0V6c-0.1,0-0.3,0-0.4,0c-1.4,0-5.1,1-5.1,7.5c0,4.6,2.6,6.5,5,6.7C200.2,20.4,202.3,18.8,202.9,17.4z"/>
	<path class="st1" d="M62.1,21.3v0.5h-5.7v-0.5c1.3-0.4,1.3-1,1.3-2.7V9c0-1.2-0.3-1.7-1.7-2V6.6l4.7-1v13
		C60.7,20.5,60.9,21,62.1,21.3z"/>
	<path class="st1" d="M72,21.4v0.4h-5.7v-0.4c1.3-0.4,1.4-1,1.4-2.8v-7.4c0-2.3-1.2-4.1-3.5-4.1c-0.7,0-1.4,0.2-2,0.6l-0.3-0.3
		c1.1-1.1,2.6-1.8,4-1.8c2.8,0,4.7,1.4,4.7,5.5v7.5C70.6,20.5,70.8,21,72,21.4z"/>
	<path class="st1" d="M170.1,21.3v0.5h-5.7v-0.5c1.3-0.4,1.3-1,1.3-2.7V9c0-1.2-0.3-1.7-1.7-2V6.6l4.7-1v13
		C168.7,20.5,168.8,21,170.1,21.3z"/>
	<path class="st1" d="M179.9,21.4v0.4h-5.7v-0.4c1.3-0.4,1.4-1,1.4-2.8v-7.4c0-2.3-1.2-4.1-3.5-4.1c-0.7,0-1.4,0.2-2,0.6l-0.3-0.3
		c1.1-1.1,2.6-1.8,4-1.8c2.8,0,4.7,1.4,4.7,5.5v7.5C178.6,20.5,178.8,21,179.9,21.4z"/>
	<path class="st1" d="M132.9,13.8c0,4.5-2.6,8.3-7.8,8.3c-5.2,0-7.9-3.8-7.9-8.3c0-4.2,2.3-7.6,6.7-8.2v0.4
		c-1.9,0.5-3.2,2.5-3.2,7.8c0,6.2,1.8,7.8,4.4,7.8c2.6,0,4.3-1.6,4.3-7.8c0-5.2-1.2-7.3-3.1-7.8V5.6C130.7,6.2,132.9,9.6,132.9,13.8
		z"/>
</g>
</svg>
